<svg id="email" xmlns="http://www.w3.org/2000/svg" width="65.799" height="46.883" viewBox="0 0 65.799 46.883">
  <path id="Path_4" data-name="Path 4" d="M179.96,49.029c0-.075.052-.148.048-.223l-20.08,19.348,20.056,18.73c.012-.134-.024-.269-.024-.405Z" transform="translate(-114.21 -44.312)" fill="#4958e8"/>
  <path id="Path_5" data-name="Path 5" d="M50.517,126.9l-8.2,7.887a2.144,2.144,0,0,1-2.948.024L31.2,127.194,11.01,146.651a4.65,4.65,0,0,0,1.569.313H69.087a4.648,4.648,0,0,0,2.256-.622Z" transform="translate(-7.863 -100.081)" fill="#4958e8"/>
  <path id="Path_6" data-name="Path 6" d="M37.325,63.294l30.644-29.52a4.644,4.644,0,0,0-2.367-.689H9.094A4.657,4.657,0,0,0,6.13,34.19Z" transform="translate(-4.378 -33.085)" fill="#4958e8"/>
  <path id="Path_7" data-name="Path 7" d="M0,52.1V88.83a4.663,4.663,0,0,0,.2,1.217l19.936-19.2Z" transform="translate(0 -46.664)" fill="#4958e8"/>
</svg>
