<svg id="instagram" xmlns="http://www.w3.org/2000/svg" width="65.798" height="65.812" viewBox="0 0 65.798 65.812">
  <path id="Path_8" data-name="Path 8" d="M66.08,19.349a24.048,24.048,0,0,0-1.53-7.984,16.859,16.859,0,0,0-9.63-9.629A24.109,24.109,0,0,0,46.937.206C43.414.039,42.3,0,33.361,0S23.307.039,19.8.193a24.054,24.054,0,0,0-7.983,1.53A16.057,16.057,0,0,0,5.977,5.528a16.2,16.2,0,0,0-3.793,5.824,24.113,24.113,0,0,0-1.53,7.984C.487,22.859.449,23.977.449,32.913S.487,42.966.641,46.476a24.047,24.047,0,0,0,1.53,7.984A16.856,16.856,0,0,0,11.8,64.089a24.113,24.113,0,0,0,7.984,1.53c3.509.155,4.628.193,13.563.193s10.054-.038,13.563-.193a24.042,24.042,0,0,0,7.983-1.53,16.833,16.833,0,0,0,9.63-9.629,24.129,24.129,0,0,0,1.53-7.984c.154-3.51.193-4.628.193-13.564s-.013-10.054-.167-13.564Zm-5.926,26.87a18.039,18.039,0,0,1-1.131,6.107,10.917,10.917,0,0,1-6.248,6.248,18.1,18.1,0,0,1-6.107,1.131c-3.471.155-4.512.193-13.293.193s-9.835-.038-13.294-.193a18.029,18.029,0,0,1-6.107-1.131,10.127,10.127,0,0,1-3.78-2.456,10.232,10.232,0,0,1-2.456-3.78,18.106,18.106,0,0,1-1.131-6.107c-.155-3.471-.193-4.513-.193-13.294s.038-9.835.193-13.293a18.029,18.029,0,0,1,1.131-6.107,10,10,0,0,1,2.469-3.78A10.216,10.216,0,0,1,13.986,7.3a18.115,18.115,0,0,1,6.107-1.131c3.471-.154,4.513-.193,13.293-.193s9.835.039,13.294.193A18.038,18.038,0,0,1,52.787,7.3a10.119,10.119,0,0,1,3.78,2.455,10.23,10.23,0,0,1,2.456,3.78,18.112,18.112,0,0,1,1.131,6.107c.154,3.471.193,4.512.193,13.293s-.039,9.81-.193,13.281Zm0,0" transform="translate(-0.449 0)" fill="#4958e8"/>
  <path id="Path_9" data-name="Path 9" d="M141.855,124.5a16.906,16.906,0,1,0,16.906,16.906A16.91,16.91,0,0,0,141.855,124.5Zm0,27.873a10.967,10.967,0,1,1,10.966-10.967A10.968,10.968,0,0,1,141.855,152.373Zm0,0" transform="translate(-108.943 -108.494)" fill="#4958e8"/>
  <path id="Path_10" data-name="Path 10" d="M370.344,92.549A3.947,3.947,0,1,1,366.4,88.6,3.947,3.947,0,0,1,370.344,92.549Zm0,0" transform="translate(-315.91 -77.211)" fill="#4958e8"/>
</svg>
