<svg id="linkedin" xmlns="http://www.w3.org/2000/svg" width="65.799" height="65.799" viewBox="0 0 65.799 65.799">
  <path id="Path_11" data-name="Path 11" d="M51,52.608v0h.016V28.473c0-11.805-2.541-20.9-16.343-20.9-6.635,0-11.087,3.641-12.9,7.093h-.192V8.676H8.489V52.605H22.115V30.853c0-5.727,1.086-11.265,8.178-11.265,6.988,0,7.093,6.536,7.093,11.633V52.608Z" transform="translate(14.784 13.191)" fill="#4958e8"/>
  <path id="Path_12" data-name="Path 12" d="M.4,7.977H14.038V51.906H.4Z" transform="translate(0.69 13.893)" fill="#4958e8"/>
  <path id="Path_13" data-name="Path 13" d="M7.9,0a7.938,7.938,0,1,0,7.9,7.9A7.9,7.9,0,0,0,7.9,0Z" fill="#4958e8"/>
</svg>
